# xmcd CD database file
#
# Track frame offsets:
#	150
#	22100
#	35688
#	54825
#	73800
#	95675
#	110650
#	130088
#	150588
#	169125
#
# Disc length: 2542 seconds
#
# Revision: 0
# Processed by: cddbd v1.5.2PL0 Copyright (c) Steve Scherf et al.
# Submitted via: CDex 1.51
#
DISCID=8709ec0a
DTITLE=鄭敬基 - 香港最後探戈
DYEAR=1991
DGENRE=Blues
TTITLE0=香港最後探戈
TTITLE1=問你會否跟我走（合唱：呂珊）
TTITLE2=一言難盡
TTITLE3=終於又走近妳面前
TTITLE4=借來的美夢
TTITLE5=二百噸炸藥
TTITLE6=Cindy
TTITLE7=問我且是誰
TTITLE8=醜
TTITLE9=伴我飛翔
EXTD=YEAR: 1991
EXTT0=
EXTT1=
EXTT2=
EXTT3=
EXTT4=
EXTT5=
EXTT6=
EXTT7=
EXTT8=
EXTT9=
PLAYORDER=
